<svg width="20.000000" height="20.000000" viewBox="0 0 20 20" fill="none" xmlns="http://www.w3.org/2000/svg" xmlns:xlink="http://www.w3.org/1999/xlink">
	<desc>
			Created with Pixso.
	</desc>
	<defs/>
	<path id="Path" d="M18.8959 0L1.10413 0C0.494141 0 0 0.494171 0 1.10416L0 18.8967C0 19.5058 0.494141 20 1.10413 20L10.6833 20L10.6833 12.255L8.07666 12.255L8.07666 9.23666L10.6833 9.23666L10.6833 7.01083C10.6833 4.42749 12.2609 3.02084 14.5658 3.02084C15.67 3.02084 16.6183 3.10333 16.895 3.14001L16.895 5.84L15.2966 5.84082C14.0433 5.84082 13.8008 6.43668 13.8008 7.31L13.8008 9.23749L16.79 9.23749L16.4009 12.2558L13.8008 12.2558L13.8008 20L18.8975 20C19.5059 20 20 19.5058 20 18.8958L20 1.10416C20 0.494171 19.5059 0 18.8959 0Z" fill="#172339" fill-opacity="1.000000" fill-rule="nonzero"/>
</svg>
