<svg width="20.000000" height="20.000000" viewBox="0 0 20 20" fill="none" xmlns="http://www.w3.org/2000/svg" xmlns:xlink="http://www.w3.org/1999/xlink">
	<desc>
			Created with Pixso.
	</desc>
	<defs/>
	<path id="Shape" d="M10 0C7.28418 0 6.94421 0.0116577 5.87744 0.0599976C2.24585 0.226654 0.227539 2.24167 0.060791 5.87668C0.0117188 6.94415 0 7.28418 0 10C0 12.7158 0.0117188 13.0567 0.0600586 14.1233C0.226685 17.755 2.2417 19.7733 5.87671 19.94C6.94421 19.9883 7.28418 20 10 20C12.7158 20 13.0566 19.9883 14.1233 19.94C17.7517 19.7733 19.775 17.7583 19.9392 14.1233C19.9883 13.0567 20 12.7158 20 10C20 7.28418 19.9883 6.94415 19.9399 5.8775C19.7766 2.24918 17.7592 0.227509 14.1241 0.0608215C13.0566 0.0116577 12.7158 0 10 0ZM14.0416 1.86084C12.9867 1.8125 12.67 1.80249 10 1.80249C7.32996 1.80249 7.01416 1.8125 5.95911 1.85999C3.2467 1.98334 1.98413 3.26999 1.85999 5.95917C1.8125 7.01416 1.80164 7.32999 1.80164 10C1.80164 12.6708 1.81165 12.9867 1.85999 14.0408C1.98328 16.725 3.24255 18.0167 5.95911 18.1408C7.01331 18.1892 7.32996 18.1992 10 18.1992C12.6716 18.1992 12.9867 18.1892 14.0416 18.1408C16.7542 18.0175 18.0167 16.7292 18.1409 14.0417C18.1884 12.9875 18.1984 12.6717 18.1984 10.0008C18.1984 7.33084 18.1892 7.01416 18.1409 5.95999C18.0175 3.26999 16.7517 1.98416 14.0416 1.86084ZM14.1375 4.66251C14.1375 4 14.675 3.46249 15.3384 3.46249C16.0009 3.46249 16.5375 4 16.5375 4.66251C16.5375 5.32501 16.0009 5.86249 15.3384 5.86249C14.675 5.86249 14.1375 5.32501 14.1375 4.66251ZM4.86499 10C4.86499 7.16415 7.16418 4.86499 10 4.86499C12.8358 4.86499 15.135 7.16415 15.135 10C15.135 12.8367 12.8358 15.1358 10 15.1358C7.16418 15.1358 4.86499 12.8358 4.86499 10ZM10 13.3333C8.15918 13.3333 6.66663 11.8417 6.66663 10C6.66663 8.15918 8.15918 6.66666 10 6.66666C11.8408 6.66666 13.3334 8.15918 13.3334 10C13.3334 11.8417 11.8408 13.3333 10 13.3333Z" clip-rule="evenodd" fill="#172339" fill-opacity="1.000000" fill-rule="evenodd"/>
</svg>
