<svg width="78.414307" height="24.800049" viewBox="0 0 78.4143 24.8" fill="none" xmlns="http://www.w3.org/2000/svg" xmlns:xlink="http://www.w3.org/1999/xlink">
	<desc>
			Created with Pixso.
	</desc>
	<defs/>
	<path id="Path" d="M7.85596 24.8C6.84277 24.8 5.8667 24.6826 4.92798 24.448C3.98926 24.2134 3.14941 23.8667 2.40796 23.408C1.66675 22.9493 1.08008 22.376 0.647949 21.688C0.216064 21 0 20.1974 0 19.28C0 19.2373 0 19.1866 0 19.1281C0 19.0693 0 19.024 0 18.9919L4.92798 18.9919C4.92798 19.024 4.92798 19.0587 4.92798 19.0959C4.92798 19.1333 4.92798 19.1733 4.92798 19.2161C4.92798 19.8347 5.20264 20.288 5.75195 20.576C6.30127 20.864 7.04541 21.0081 7.98389 21.0081C8.47461 21.0081 8.94678 20.9574 9.3999 20.856C9.85327 20.7546 10.2266 20.5894 10.52 20.36C10.8132 20.1306 10.96 19.84 10.96 19.488C10.96 18.9227 10.6479 18.5227 10.0239 18.288C9.3999 18.0533 8.3999 17.8187 7.02393 17.584C6.24536 17.4561 5.45605 17.2747 4.65601 17.04C3.85596 16.8053 3.12012 16.4933 2.448 16.104C1.77588 15.7147 1.2373 15.2186 0.832031 14.616C0.426758 14.0133 0.224121 13.28 0.224121 12.416C0.224121 11.264 0.573242 10.2933 1.27197 9.50403C1.9707 8.71472 2.90137 8.11731 4.06396 7.71204C5.22656 7.30664 6.50659 7.104 7.90405 7.104C9.2373 7.104 10.48 7.32532 11.6321 7.76794C12.7839 8.21069 13.7173 8.84534 14.4319 9.672C15.1467 10.4987 15.5039 11.4933 15.5039 12.656C15.5039 12.6774 15.5039 12.7094 15.5039 12.752C15.5039 12.7947 15.5039 12.8373 15.5039 12.88L10.624 12.88C10.624 12.8373 10.624 12.8 10.624 12.7679C10.624 12.736 10.624 12.7094 10.624 12.688C10.624 12.2614 10.488 11.9147 10.2161 11.6479C9.94409 11.3813 9.6001 11.1814 9.18408 11.048C8.76807 10.9147 8.33594 10.848 7.88794 10.848C7.48267 10.848 7.06396 10.8933 6.63208 10.984C6.19995 11.0747 5.83472 11.224 5.53589 11.432C5.2373 11.64 5.08789 11.9307 5.08789 12.304C5.08789 12.6666 5.24805 12.9626 5.56812 13.192C5.88794 13.4214 6.33594 13.608 6.91211 13.752C7.48804 13.896 8.15479 14.032 8.91211 14.16C9.62671 14.2773 10.3813 14.4401 11.176 14.6479C11.9707 14.856 12.7173 15.1493 13.416 15.528C14.1147 15.9066 14.6799 16.4027 15.1121 17.016C15.5439 17.6294 15.76 18.4054 15.76 19.344C15.76 20.3147 15.5359 21.1467 15.0879 21.84C14.6399 22.5333 14.0347 23.0959 13.272 23.528C12.5093 23.96 11.6614 24.28 10.728 24.488C9.79468 24.696 8.8374 24.8 7.85596 24.8Z" fill="#172339" fill-opacity="1.000000" fill-rule="nonzero"/>
	<path id="Shape" d="M24.4355 24.7361Q22.6277 24.7361 21.4595 24.1521Q20.4939 23.6692 19.8672 22.9073Q19.7358 22.7478 19.6196 22.576Q19.4707 22.3562 19.3413 22.1254L19.3413 22.1252Q18.8872 21.3145 18.6755 20.368Q18.5483 19.7994 18.4807 19.2239Q18.4036 18.5685 18.4036 17.9041L18.4036 7.42407L23.3635 7.42407L23.3635 16.592Q23.3635 17.6641 23.6035 18.5601Q23.7832 19.2311 24.1919 19.7047L24.1919 19.7048Q24.3289 19.8635 24.4915 20.0001Q25.1396 20.5441 26.3396 20.5441Q27.1897 20.5441 27.8535 20.1923Q28.1016 20.0607 28.3235 19.8801Q28.5034 19.7336 28.6648 19.569Q29.2349 18.9868 29.5715 18.176Q29.8435 17.5214 29.9443 16.8413Q30.0037 16.441 30.0037 16.0321L30.0037 21.9324Q29.8091 22.2145 29.5894 22.4751L29.5884 22.4763Q29.5562 22.5144 29.5237 22.5521C28.9263 23.2401 28.1982 23.7761 27.3396 24.16Q26.0515 24.7361 24.4355 24.7361ZM30.0037 21.9324L30.0037 24.416L34.9636 24.416L34.9636 7.42407L30.0037 7.42407L30.0037 16.0321L31.3955 17.1681Q31.3955 18.7681 30.9075 20.144Q30.5593 21.1257 30.0037 21.9324Z" clip-rule="evenodd" fill="#172339" fill-opacity="1.000000" fill-rule="evenodd"/>
	<path id="Shape" d="M38.9336 4.31787Q39.6279 4.65601 40.4871 4.65601Q41.4177 4.65601 42.1504 4.27502Q42.3372 4.17786 42.511 4.05603Q42.8701 3.80432 43.0786 3.46118Q43.3669 2.98621 43.3669 2.33606Q43.3669 1.69043 43.0828 1.21497Q42.8735 0.865601 42.511 0.608032Q42.323 0.474487 42.1199 0.370239Q41.3984 0 40.4871 0Q39.6279 0 38.9336 0.338135Q38.6968 0.453369 38.479 0.608032Q38.1165 0.865601 37.9075 1.21497Q37.623 1.69043 37.623 2.33606Q37.623 2.95361 37.8909 3.41602Q38.1021 3.78015 38.479 4.04797Q38.6968 4.20264 38.9336 4.31787ZM38.0391 7.42395L38.0391 24.416L42.9509 24.416L42.9509 7.42395L38.0391 7.42395Z" clip-rule="evenodd" fill="#172339" fill-opacity="1.000000" fill-rule="evenodd"/>
	<path id="Path" d="M54.5225 24.7679C53.8718 24.7679 53.2024 24.7119 52.5144 24.6C51.8264 24.4879 51.1865 24.2639 50.5945 23.928C50.0024 23.5919 49.5251 23.0986 49.1626 22.448C48.7998 21.7974 48.6184 20.9386 48.6184 19.8719C48.6184 19.6373 48.6184 19.3973 48.6184 19.152C48.6184 18.9066 48.6184 18.6613 48.6184 18.416L48.6184 11.2639L44.6985 11.2639L44.6985 7.42395L45.8025 7.42395C46.4424 7.42395 46.9519 7.39734 47.3306 7.34399C47.7092 7.29065 47.9917 7.15466 48.1785 6.93604C48.3652 6.71729 48.4851 6.37329 48.5386 5.90393C48.5918 5.43469 48.6184 4.78931 48.6184 3.96802L48.6184 1.82397L53.5945 1.82397L53.5945 7.42395L58.5386 7.42395L58.5386 11.2639L53.5945 11.2639L53.5945 17.376C53.5945 17.568 53.5945 17.7546 53.5945 17.936C53.5945 18.1173 53.5945 18.2933 53.5945 18.464C53.5945 19.2 53.6824 19.7974 53.8584 20.256C54.0344 20.7146 54.4744 20.944 55.1785 20.944C55.5305 20.944 55.8638 20.912 56.1785 20.848C56.4932 20.7839 56.7305 20.72 56.8904 20.656L56.8904 24.384C56.6665 24.48 56.3518 24.568 55.9465 24.6479C55.5413 24.728 55.0664 24.7679 54.5225 24.7679Z" fill="#172339" fill-opacity="1.000000" fill-rule="nonzero"/>
	<path id="Path" d="M62.574 17.408L62.574 14.1281L73.8379 14.1281L73.3579 14.96C73.3579 14.8746 73.3579 14.792 73.3579 14.712C73.3579 14.632 73.3579 14.5547 73.3579 14.48C73.3579 13.8719 73.2139 13.288 72.926 12.728C72.6379 12.168 72.1926 11.7094 71.5901 11.3521C70.9873 10.9946 70.2166 10.816 69.2781 10.816C68.3394 10.816 67.5312 11.016 66.854 11.416C66.1768 11.816 65.6594 12.3893 65.302 13.136C64.9446 13.8827 64.7659 14.7841 64.7659 15.84C64.7659 16.928 64.9392 17.8586 65.2859 18.632C65.6326 19.4054 66.1499 20 66.8379 20.416C67.5259 20.832 68.3821 21.04 69.406 21.04C70.0674 21.04 70.6379 20.9786 71.1179 20.856C71.5979 20.7334 71.99 20.576 72.2939 20.384C72.5979 20.192 72.8301 19.9786 72.99 19.744C73.1499 19.5093 73.2461 19.28 73.2781 19.056L78.1741 19.056C78.1101 19.7706 77.8647 20.472 77.438 21.16C77.0112 21.848 76.4194 22.4667 75.6619 23.016C74.9045 23.5653 73.9846 24 72.9021 24.3199C71.8193 24.64 70.5847 24.8 69.198 24.8C67.3206 24.8 65.6833 24.424 64.2859 23.672C62.8887 22.92 61.8059 21.88 61.0381 20.552C60.27 19.224 59.886 17.6907 59.886 15.952C59.886 14.192 60.2781 12.6479 61.062 11.3199C61.8459 9.99194 62.9392 8.9574 64.342 8.21606C65.7446 7.47473 67.3687 7.104 69.2139 7.104C71.1021 7.104 72.7339 7.47998 74.1101 8.23206C75.4861 8.98401 76.5474 10.0347 77.2939 11.384C78.0408 12.7334 78.4141 14.304 78.4141 16.0959C78.4141 16.3627 78.4087 16.6187 78.3979 16.864C78.3872 17.1094 78.3713 17.2906 78.3501 17.408L62.574 17.408Z" fill="#172339" fill-opacity="1.000000" fill-rule="nonzero"/>
</svg>
