<svg width="20.000000" height="16.253326" viewBox="0 0 20 16.2533" fill="none" xmlns="http://www.w3.org/2000/svg" xmlns:xlink="http://www.w3.org/1999/xlink">
	<desc>
			Created with Pixso.
	</desc>
	<defs/>
	<path id="Path" d="M20 1.92416C19.2642 2.25082 18.4734 2.47083 17.6433 2.57001C18.4908 2.0625 19.1417 1.25833 19.4475 0.299988C18.655 0.769989 17.7766 1.11166 16.8417 1.29584C16.0941 0.498322 15.0266 0 13.8467 0C11.1975 0 9.25085 2.47168 9.84912 5.03751C6.43994 4.86667 3.41663 3.23334 1.39246 0.750824C0.317505 2.595 0.834961 5.00751 2.66162 6.22916C1.98999 6.20749 1.35669 6.02335 0.804199 5.71582C0.759155 7.61667 2.1217 9.39499 4.09497 9.79083C3.51746 9.94751 2.88501 9.98416 2.2417 9.86084C2.76331 11.4908 4.27832 12.6767 6.07495 12.71C4.34998 14.0625 2.17664 14.6667 0 14.41C1.8158 15.5742 3.97339 16.2533 6.29004 16.2533C13.9083 16.2533 18.2125 9.81915 17.9525 4.04834C18.7542 3.46918 19.45 2.74667 20 1.92416Z" fill="#172339" fill-opacity="1.000000" fill-rule="nonzero"/>
</svg>
